inDegrees=no
num_controls=7
num_derivatives=13
num_iterations=170
num_multipliers=7
num_parameters=0
num_slacks=7
num_states=26
objective=0.516789
objective_accelerations=0.039266
objective_balance=0.002209
objective_effort=0.043555
objective_height=0.420108
objective_ligament=0.011651
solver_duration=2256.457236
status=Solve_Succeeded
success=true
DataType=double
version=3
OpenSimVersion=4.5
endheader
time	/jointset/ground_pelvis/pelvis_tilt/value	/jointset/ground_pelvis/pelvis_tx/value	/jointset/ground_pelvis/pelvis_ty/value	/jointset/hip_l/hip_flexion_l/value	/jointset/hip_l/hip_adduction_l/value	/jointset/hip_l/hip_rotation_l/value	/jointset/back/lumbar_extension/value	/jointset/patellofemoral_l/patellar_flexion_l/value	/jointset/knee_l/knee_flexion_l/value	/jointset/knee_l/knee_adduction_l/value	/jointset/knee_l/knee_rotation_l/value	/jointset/ankle_l/ankle_angle_l/value	/jointset/subtalar_l/subtalar_angle_l/value	/jointset/ground_pelvis/pelvis_tilt/speed	/jointset/ground_pelvis/pelvis_tx/speed	/jointset/ground_pelvis/pelvis_ty/speed	/jointset/hip_l/hip_flexion_l/speed	/jointset/hip_l/hip_adduction_l/speed	/jointset/hip_l/hip_rotation_l/speed	/jointset/back/lumbar_extension/speed	/jointset/patellofemoral_l/patellar_flexion_l/speed	/jointset/knee_l/knee_flexion_l/speed	/jointset/knee_l/knee_adduction_l/speed	/jointset/knee_l/knee_rotation_l/speed	/jointset/ankle_l/ankle_angle_l/speed	/jointset/subtalar_l/subtalar_angle_l/speed	/forceset/tau_hip_flexion_l	/forceset/tau_hip_adduction_l	/forceset/tau_hip_rotation_l	/forceset/tau_knee_flexion_l	/forceset/tau_ankle_angle_l	/forceset/tau_subtalar_angle_l	/forceset/tau_lumbar_extension	lambda_cid13_p0	lambda_cid13_p1	lambda_cid13_p2	lambda_cid13_p3	lambda_cid13_p4	lambda_cid13_p5	lambda_cid14_p0	/jointset/ground_pelvis/pelvis_tilt/accel	/jointset/ground_pelvis/pelvis_tx/accel	/jointset/ground_pelvis/pelvis_ty/accel	/jointset/hip_l/hip_flexion_l/accel	/jointset/hip_l/hip_adduction_l/accel	/jointset/hip_l/hip_rotation_l/accel	/jointset/back/lumbar_extension/accel	/jointset/patellofemoral_l/patellar_flexion_l/accel	/jointset/knee_l/knee_flexion_l/accel	/jointset/knee_l/knee_adduction_l/accel	/jointset/knee_l/knee_rotation_l/accel	/jointset/ankle_l/ankle_angle_l/accel	/jointset/subtalar_l/subtalar_angle_l/accel	gamma_cid13_p0	gamma_cid13_p1	gamma_cid13_p2	gamma_cid13_p3	gamma_cid13_p4	gamma_cid13_p5	gamma_cid14_p0
0	-0.03681879826806155	0.05667570692316046	0.9203416576373948	0.3085816938045678	-0.2956388941177144	-0.3015754596989628	-0.3879492264334186	0.2499269421184914	0.2499269421184919	-0.1745328707935169	-0.1745014714391859	-0.0008036623358878681	0.000438832314378324	0	0	0	0	0	0	0	0	0	0	0	0	0	0.06138597710630739	-0.03900157539269473	-0.01750864519707121	-0.2231481633353644	0.1526736816169202	-0.008150193658654223	0.0101187407846853	5.158780425296943	-0.2151294702456574	2.837081527677884	22.40365256519016	-629.417016619857	-75.4768871156745	-23.19590748465591	-1.300781249251393	-2.191819469569618	-0.8376115400065132	8.696168733124532	-0.5476604762305651	2.594603607529617	-6.956769063848832	7.411965833669186	7.411965833668865	1.23722675080149	-0.06682385371289809	0.4576711196784093	-0.441334708804106	9.763159524844622e-09	1.007179942109068e-07	2.167806992398966e-08	-1.183144684699259e-08	1.009398776994264e-07	2.643149003590392e-08	5.153196200285965e-09
0.01	-0.03688001677046441	0.05656769629438574	0.9203007075130966	0.3090056373286803	-0.2956665384323934	-0.3014453363616115	-0.3882950299811864	0.2502899709664985	0.2502899709665063	-0.174474236345029	-0.1745022086211584	-0.0007818708850667737	0.0004161125259353752	-0.01216350810235745	-0.02146265197555257	-0.008154156793172641	0.08431917676531883	-0.00550391613440223	0.02591093168535419	-0.06863933441959355	0.07226534713318625	0.07226534713318472	0.01165917113017829	-0.0001345540580958583	0.004388709326328147	-0.004506304303723446	0.0548755668142278	-0.04293610252059728	-0.01667019626596022	-0.2175567823659075	0.1453456989528261	-0.0003171473601474845	0.01617144337241361	2.998910817584547	-3.223248101849626	3.298843915252594	22.08451983194963	-632.0623769290644	-81.1554731309774	-23.20006786747608	-1.162111628674906	-2.102569360888505	-0.7989173510262286	8.229359983196861	-0.5480336183429061	2.572278966484875	-6.73930936095397	7.082754752087894	7.082754752087845	1.120123000671787	0.01516182465462259	0.4340371793864227	-0.4496489981773302	-8.578692541109617e-09	1.043806048902715e-07	7.117034894244722e-08	7.624809019251786e-09	1.776490895572572e-08	-1.33478047966975e-10	3.908962243922989e-10
0.02	-0.03706046556147962	0.05624924288598742	0.9201792959004559	0.310258686187439	-0.2957484771956765	-0.3010595155039178	-0.3893115856191378	0.2513654404056379	0.251365440405638	-0.1743010380439284	-0.174503904742394	-0.0007152790729271412	0.0003494555530510239	-0.02384605772260196	-0.04208855592471882	-0.01609229766848801	0.1658210669290861	-0.01085888972072043	0.05113950406857277	-0.1341504180367639	0.1424881182241547	0.1424881182241529	0.02291277052218929	-0.0001917878556905789	0.00896007226371308	-0.008787436888281038	0.0483651565221583	-0.04687062964849419	-0.01583174733494497	-0.2119654013964274	0.1380177162887387	0.007515898938368658	0.02222414596014346	0.8964964696345914	-6.239135733425585	3.759227587580897	21.72485985315101	-633.8155201347295	-86.76087695025974	-23.21230635158838	-1.204589552828822	-2.02446986429234	-0.794408356435059	8.132711412814214	-0.5178719666137627	2.458131747102498	-6.331118903364208	7.003450625225635	7.003450625225544	1.156112403168024	-0.05135980161267076	0.4942018418897812	-0.3963003649709336	-2.692054460706385e-08	1.080432155696362e-07	1.206626279609048e-07	2.708106488549616e-08	-6.541005978797499e-08	-2.669844613183787e-08	-4.371403751501367e-09
0.03	-0.03735575342177275	0.05572877923824343	0.9199793783080205	0.3123132592350089	-0.2958831202902262	-0.3004251623671625	-0.3909681817297438	0.2531331713338308	0.2531331713338277	-0.1740172046468966	-0.1745060903524923	-0.00060197780832605	0.000241247637273276	-0.03514993667064035	-0.06185779355762024	-0.02387185015977477	0.2446504762543409	-0.01604116171549095	0.07560812867481882	-0.1967303085707577	0.2107331560767815	0.2107331560767716	0.03378214214848869	-0.000239647014221911	0.01373833695496388	-0.01281021701631473	0.04351891076253773	-0.04318929535843501	-0.01545092649017168	-0.2096830989634818	0.1380978058617774	0.006134403365347413	0.02698642327830033	0.8379801354208214	-5.651380538184273	3.691194354960514	20.48030098122523	-635.2755323672712	-84.84940088929622	-23.23213616508254	-1.084053743312951	-1.93118820796083	-0.7668365147242432	7.691590730460228	-0.5141487362465296	2.422764148969873	-6.155649801396621	6.6862945582289	6.686294558227771	1.04161285984795	0.01937232429687766	0.4753644349252824	-0.3987085254540221	-4.11184166050424e-08	9.73859560836396e-08	1.57146239641384e-07	4.150301552999018e-08	-1.331316330668172e-07	-4.941929375223251e-08	-9.105728117806532e-09
